<svg xmlns="http://www.w3.org/2000/svg" viewBox="0 0 1280 1020" version="1.1"><path d="M 443.667 237.667 C 443.300 238.033, 443 360.674, 443 510.202 L 443 782.071 571.750 781.747 C 698.125 781.428, 700.744 781.382, 713.713 779.262 C 747.569 773.729, 773.836 764.221, 796.457 749.311 C 808.393 741.443, 827.244 723.059, 834.214 712.487 C 852.173 685.250, 860.206 652.535, 857.840 616.267 C 854.774 569.256, 827.136 529.002, 783.900 508.574 C 770.948 502.454, 760.808 499.182, 745.114 496.058 L 731.728 493.392 740.389 491.254 C 751.397 488.537, 762.738 483.634, 773.729 476.842 C 784.443 470.221, 802.696 452.554, 809.727 442 C 823.985 420.597, 830.986 397.927, 830.996 373.128 C 831.015 324.574, 806.821 283.439, 764.500 260.074 C 742.048 247.678, 715.357 240.364, 684 238.016 C 669.058 236.897, 444.762 236.571, 443.667 237.667 M 532 388.563 L 532 468.126 592.750 467.745 C 657.525 467.338, 661.180 467.092, 679.884 461.879 C 713.370 452.544, 734.566 432.204, 740.414 403.792 C 741.286 399.553, 742 391.321, 742 385.500 C 742 349.516, 724.298 325.684, 689.398 314.680 C 672.706 309.418, 665.845 309, 596.122 309 L 532 309 532 388.563 M 532 623.065 L 532 711.130 604.250 710.718 C 673.134 710.325, 677.031 710.205, 687.890 708.147 C 701.045 705.654, 717.825 700.277, 725.931 695.956 C 744.661 685.973, 757.907 670.230, 763.812 650.933 C 766.665 641.611, 768.334 626.052, 767.559 616 C 764.317 573.918, 739.937 549.031, 692.651 539.530 C 673.177 535.618, 660.194 535.021, 594.250 535.010 L 532 535 532 623.065" stroke="none" fill="#f7f0fb" fill-rule="evenodd"/><path d="M 244.381 1.468 C 219.481 6.004, 196.494 18.490, 178.171 37.431 C 161.030 55.150, 150.500 74.448, 143.809 100.404 C 141.859 107.970, 141.672 112.360, 140.958 167.500 C 140.218 224.574, 139.679 236.158, 136.425 265 C 126.739 350.826, 103.212 413.193, 68.040 446.280 C 50.369 462.904, 28.700 473.327, 5.250 476.481 L -0 477.188 0 510 L 0 542.812 5.250 543.519 C 48.672 549.360, 82.762 578.364, 105.356 628.689 C 119.923 661.137, 130.896 705.697, 136.461 755 C 139.671 783.449, 140.216 795.256, 140.958 852.500 C 141.672 907.640, 141.859 912.030, 143.809 919.596 C 150.768 946.589, 161.436 965.645, 179.905 984.069 C 194.801 998.929, 208.632 1007.612, 227.714 1014.082 C 246.463 1020.438, 215.942 1020, 640 1020 C 1061.294 1020, 1033.367 1020.375, 1051.510 1014.475 C 1069.156 1008.737, 1084.288 999.586, 1098.199 986.242 C 1117.217 967.999, 1128.983 947.755, 1135.655 921.797 L 1138.302 911.500 1139.032 853.500 C 1139.434 821.600, 1140.268 789.650, 1140.886 782.500 C 1146.887 713.095, 1158.196 663.542, 1176.946 624.500 C 1187.830 601.836, 1197.977 586.970, 1211.129 574.421 C 1228.132 558.197, 1245.552 549.236, 1269.077 544.613 L 1280.500 542.369 1280.755 509.434 L 1281.009 476.500 1275.755 476.288 C 1272.865 476.171, 1266.132 474.964, 1260.794 473.606 C 1213.136 461.484, 1179.589 419.659, 1158.925 346.602 C 1152.238 322.960, 1146.464 291.475, 1143.043 260 C 1140.345 235.183, 1139.710 220.384, 1139.032 166.500 L 1138.302 108.500 1135.655 98.203 C 1129.234 73.221, 1117.432 52.454, 1099.887 35.261 C 1083.395 19.100, 1067.062 9.728, 1044 3.192 L 1034.500 0.500 643 0.336 C 326.053 0.203, 250.144 0.419, 244.381 1.468 M 443.667 237.667 C 443.300 238.033, 443 360.674, 443 510.202 L 443 782.071 571.750 781.747 C 698.125 781.428, 700.744 781.382, 713.713 779.262 C 747.569 773.729, 773.836 764.221, 796.457 749.311 C 808.393 741.443, 827.244 723.059, 834.214 712.487 C 852.173 685.250, 860.206 652.535, 857.840 616.267 C 854.774 569.256, 827.136 529.002, 783.900 508.574 C 770.948 502.454, 760.808 499.182, 745.114 496.058 L 731.728 493.392 740.389 491.254 C 751.397 488.537, 762.738 483.634, 773.729 476.842 C 784.443 470.221, 802.696 452.554, 809.727 442 C 823.985 420.597, 830.986 397.927, 830.996 373.128 C 831.015 324.574, 806.821 283.439, 764.500 260.074 C 742.048 247.678, 715.357 240.364, 684 238.016 C 669.058 236.897, 444.762 236.571, 443.667 237.667 M 532 388.563 L 532 468.126 592.750 467.745 C 657.525 467.338, 661.180 467.092, 679.884 461.879 C 713.370 452.544, 734.566 432.204, 740.414 403.792 C 741.286 399.553, 742 391.321, 742 385.500 C 742 349.516, 724.298 325.684, 689.398 314.680 C 672.706 309.418, 665.845 309, 596.122 309 L 532 309 532 388.563 M 0.448 510 C 0.448 528.425, 0.583 535.962, 0.748 526.750 C 0.913 517.538, 0.913 502.462, 0.748 493.250 C 0.583 484.038, 0.448 491.575, 0.448 510 M 532 623.065 L 532 711.130 604.250 710.718 C 673.134 710.325, 677.031 710.205, 687.890 708.147 C 701.045 705.654, 717.825 700.277, 725.931 695.956 C 744.661 685.973, 757.907 670.230, 763.812 650.933 C 766.665 641.611, 768.334 626.052, 767.559 616 C 764.317 573.918, 739.937 549.031, 692.651 539.530 C 673.177 535.618, 660.194 535.021, 594.250 535.010 L 532 535 532 623.065" stroke="none" fill="#7d0bf8" fill-rule="evenodd"/></svg>