<?xml version="1.0" encoding="utf-8"?>
<svg width="24.000011px" height="24px" viewBox="0 0 24.000011 24" version="1.1" xmlns:xlink="http://www.w3.org/1999/xlink" xmlns="http://www.w3.org/2000/svg">
  <defs>
    <path d="M1.16175e-05 0L24 0L24 24L1.16175e-05 24L1.16175e-05 0Z" id="path_1" />
    <clipPath id="mask_1">
      <use xlink:href="#path_1" />
    </clipPath>
  </defs>
  <g id="express">
    <path d="M1.16175e-05 0L24 0L24 24L1.16175e-05 24L1.16175e-05 0Z" id="Background" fill="#FFFFFF" fill-opacity="0" fill-rule="evenodd" stroke="none" />
    <path d="M24 18.588C23.2772 18.8614 22.4639 18.5524 22.105 17.868L18.655 13.097L18.155 12.43L14.152 17.874C13.8148 18.5295 13.0433 18.8326 12.35 18.582L17.508 11.662L12.71 5.411C13.4211 5.15473 14.2145 5.43282 14.61 6.077L18.186 10.907L21.782 6.097C22.1221 5.45278 22.8909 5.16556 23.57 5.429L21.708 7.9L19.186 11.183C19.0444 11.3094 18.9633 11.4902 18.9633 11.68C18.9633 11.8698 19.0444 12.0506 19.186 12.177L23.99 18.589L24 18.588ZM0.00201162 11.576L0.422012 9.501C1.57601 5.398 6.28001 3.691 9.51601 6.231C11.411 7.72 11.884 9.828 11.791 12.204L1.11601 12.204C0.943012 16.447 4.00501 19.009 7.92001 17.7C9.20917 17.236 10.1791 16.1555 10.502 14.824C10.709 14.158 11.05 14.044 11.676 14.236C11.4647 15.8819 10.5106 17.3402 9.08701 18.193C6.70627 19.4952 3.75808 19.1187 1.78101 17.26C0.828041 16.1874 0.252088 14.8325 0.141011 13.402C0.141011 13.167 0.0610113 12.947 0.00701129 12.736C0.00215548 12.3499 -0.000186747 11.9638 1.16175e-05 11.5776L0.00201162 11.576ZM1.12901 11.29L10.783 11.29C10.723 8.214 8.78201 6.032 6.19301 6.012C3.31101 5.972 1.24901 8.106 1.12201 11.276L1.12901 11.29Z" id="Shape" fill="#9CA2AE" fill-rule="evenodd" stroke="none" />
  </g>
</svg>