<?xml version="1.0" encoding="utf-8"?>
<svg width="800px" height="800px" viewBox="0 0 800 800" version="1.1" xmlns:xlink="http://www.w3.org/1999/xlink" xmlns="http://www.w3.org/2000/svg">
  <defs>
    <path d="M0 0L800 0L800 800L0 800L0 0Z" id="path_1" />
    <clipPath id="mask_1">
      <use xlink:href="#path_1" />
    </clipPath>
  </defs>
  <g id="facebook">
    <path d="M0 0L800 0L800 800L0 800L0 0Z" id="Background" fill="#FFFFFF" fill-opacity="0" fill-rule="evenodd" stroke="none" />
    <path d="M66.6667 200C66.6667 126.362 126.362 66.6667 200 66.6667L600 66.6667C673.637 66.6667 733.333 126.362 733.333 200L733.333 600C733.333 673.637 673.637 733.333 600 733.333L200 733.333C126.362 733.333 66.6667 673.637 66.6667 600L66.6667 200L66.6667 200ZM200 133.333C163.181 133.333 133.333 163.181 133.333 200L133.333 600C133.333 636.82 163.181 666.667 200 666.667L400 666.667L400 433.333L366.667 433.333C348.257 433.333 333.333 418.41 333.333 400C333.333 381.59 348.257 366.667 366.667 366.667L400 366.667L400 316.667C400 252.233 452.233 200 516.667 200L536.667 200C555.077 200 570 214.924 570 233.333C570 251.743 555.077 266.667 536.667 266.667L516.667 266.667C489.053 266.667 466.667 289.052 466.667 316.667L466.667 366.667L536.667 366.667C555.077 366.667 570 381.59 570 400C570 418.41 555.077 433.333 536.667 433.333L466.667 433.333L466.667 666.667L600 666.667C636.82 666.667 666.667 636.82 666.667 600L666.667 200C666.667 163.181 636.82 133.333 600 133.333L200 133.333L200 133.333Z" id="Shape" fill="#9CA2AE" fill-rule="evenodd" stroke="none" />
  </g>
</svg>