<?xml version="1.0" encoding="utf-8"?>
<svg width="800px" height="800px" viewBox="0 0 800 800" version="1.1" xmlns:xlink="http://www.w3.org/1999/xlink" xmlns="http://www.w3.org/2000/svg">
  <defs>
    <path d="M0 0L800 0L800 800L0 800L0 0Z" id="path_1" />
    <clipPath id="mask_1">
      <use xlink:href="#path_1" />
    </clipPath>
  </defs>
  <g id="fork">
    <path d="M0 0L800 0L800 800L0 800L0 0Z" id="Background" fill="#FFFFFF" fill-opacity="0" fill-rule="evenodd" stroke="none" />
    <path d="M200 133.333C181.591 133.333 166.667 148.257 166.667 166.667C166.667 185.076 181.591 200 200 200C218.409 200 233.333 185.076 233.333 166.667C233.333 148.257 218.409 133.333 200 133.333L200 133.333ZM300 166.667C300 210.207 272.173 247.249 233.333 260.976L233.333 300C233.333 336.82 263.181 366.667 300 366.667C339.823 366.667 375.57 384.127 400 411.807C424.43 384.127 460.177 366.667 500 366.667C536.82 366.667 566.667 336.82 566.667 300L566.667 260.976C527.827 247.249 500 210.207 500 166.667C500 111.438 544.77 66.6667 600 66.6667C655.23 66.6667 700 111.438 700 166.667C700 210.207 672.173 247.249 633.333 260.976L633.333 300C633.333 373.637 573.637 433.333 500 433.333C463.18 433.333 433.333 463.18 433.333 500L433.333 539.023C472.173 552.75 500 589.793 500 633.333C500 688.563 455.23 733.333 400 733.333C344.77 733.333 300 688.563 300 633.333C300 589.793 327.827 552.75 366.667 539.023L366.667 500C366.667 463.18 336.82 433.333 300 433.333C226.362 433.333 166.667 373.637 166.667 300L166.667 260.976C127.827 247.249 100 210.207 100 166.667C100 111.438 144.772 66.6667 200 66.6667C255.228 66.6667 300 111.438 300 166.667L300 166.667ZM400 600C381.59 600 366.667 614.923 366.667 633.333C366.667 651.743 381.59 666.667 400 666.667C418.41 666.667 433.333 651.743 433.333 633.333C433.333 614.923 418.41 600 400 600L400 600ZM600 200C618.41 200 633.333 185.076 633.333 166.667C633.333 148.257 618.41 133.333 600 133.333C581.59 133.333 566.667 148.257 566.667 166.667C566.667 185.076 581.59 200 600 200L600 200Z" id="Shape" fill="#9CA2AE" fill-rule="evenodd" stroke="none" />
  </g>
</svg>