<?xml version="1.0" encoding="utf-8"?>
<svg width="32px" height="32px" viewBox="0 0 32 32" version="1.1" xmlns:xlink="http://www.w3.org/1999/xlink" xmlns="http://www.w3.org/2000/svg">
  <defs>
    <path d="M0 0L32 0L32 32L0 32L0 0Z" id="path_1" />
    <clipPath id="mask_1">
      <use xlink:href="#path_1" />
    </clipPath>
  </defs>
  <g id="github">
    <path d="M0 0L32 0L32 32L0 32L0 0Z" id="Background" fill="#FFFFFF" fill-opacity="0" fill-rule="evenodd" stroke="none" />
    <path d="M16 4C9.37109 4 4 9.37109 4 16C4 21.3008 7.4375 25.8008 12.207 27.3867C12.8086 27.4961 13.0273 27.1289 13.0273 26.8086C13.0273 26.5234 13.0156 25.7695 13.0117 24.7695C9.67188 25.4922 8.96875 23.1602 8.96875 23.1602C8.42188 21.7734 7.63672 21.4023 7.63672 21.4023C6.54688 20.6602 7.71875 20.6758 7.71875 20.6758C8.92188 20.7617 9.55469 21.9102 9.55469 21.9102C10.625 23.7461 12.3633 23.2148 13.0469 22.9102C13.1563 22.1328 13.4688 21.6055 13.8086 21.3047C11.1445 21.0039 8.34375 19.9727 8.34375 15.375C8.34375 14.0625 8.8125 12.9922 9.57813 12.1523C9.45703 11.8516 9.04297 10.6289 9.69531 8.97656C9.69531 8.97656 10.7031 8.65625 12.9961 10.207C13.9531 9.94141 14.9805 9.80859 16 9.80469C17.0195 9.80859 18.0469 9.94141 19.0039 10.207C21.2969 8.65625 22.3008 8.97656 22.3008 8.97656C22.957 10.6289 22.5469 11.8516 22.4219 12.1523C23.1914 12.9922 23.6523 14.0625 23.6523 15.375C23.6523 19.9844 20.8477 20.9961 18.1758 21.2969C18.6055 21.6641 18.9883 22.3984 18.9883 23.5156C18.9883 25.1211 18.9766 26.4141 18.9766 26.8086C18.9766 27.1289 19.1914 27.5039 19.8008 27.3867C24.5664 25.7969 28 21.3008 28 16C28 9.37109 22.6289 4 16 4L16 4Z" id="Shape" fill="#9CA2AE" fill-rule="evenodd" stroke="none" />
  </g>
</svg>