<?xml version="1.0" encoding="utf-8"?>
<svg width="800px" height="800px" viewBox="0 0 800 800" version="1.1" xmlns:xlink="http://www.w3.org/1999/xlink" xmlns="http://www.w3.org/2000/svg">
  <defs>
    <path d="M0 0L800 0L800 800L0 800L0 0Z" id="path_1" />
    <clipPath id="mask_1">
      <use xlink:href="#path_1" />
    </clipPath>
  </defs>
  <g id="instagram">
    <path d="M0 0L800 0L800 800L0 800L0 0Z" id="Background" fill="#FFFFFF" fill-opacity="0" fill-rule="evenodd" stroke="none" />
    <path d="M66.6667 200C66.6667 126.362 126.362 66.6667 200 66.6667L600 66.6667C673.637 66.6667 733.333 126.362 733.333 200L733.333 600C733.333 673.637 673.637 733.333 600 733.333L200 733.333C126.362 733.333 66.6667 673.637 66.6667 600L66.6667 200L66.6667 200ZM200 133.333C163.181 133.333 133.333 163.181 133.333 200L133.333 600C133.333 636.82 163.181 666.667 200 666.667L600 666.667C636.82 666.667 666.667 636.82 666.667 600L666.667 200C666.667 163.181 636.82 133.333 600 133.333L200 133.333L200 133.333ZM400 300C344.77 300 300 344.77 300 400C300 455.23 344.77 500 400 500C455.23 500 500 455.23 500 400C500 344.77 455.23 300 400 300L400 300ZM233.333 400C233.333 307.953 307.953 233.333 400 233.333C492.047 233.333 566.667 307.953 566.667 400C566.667 492.047 492.047 566.667 400 566.667C307.953 566.667 233.333 492.047 233.333 400L233.333 400ZM583.333 266.667C610.947 266.667 633.333 244.281 633.333 216.667C633.333 189.052 610.947 166.667 583.333 166.667C555.72 166.667 533.333 189.052 533.333 216.667C533.333 244.281 555.72 266.667 583.333 266.667L583.333 266.667Z" id="Shape" fill="#9CA2AE" fill-rule="evenodd" stroke="none" />
  </g>
</svg>