<?xml version="1.0" encoding="utf-8"?>
<svg width="800px" height="800px" viewBox="0 0 800 800" version="1.1" xmlns:xlink="http://www.w3.org/1999/xlink" xmlns="http://www.w3.org/2000/svg">
  <defs>
    <path d="M0 0L800 0L800 800L0 800L0 0Z" id="path_1" />
    <clipPath id="mask_1">
      <use xlink:href="#path_1" />
    </clipPath>
  </defs>
  <g id="fork">
    <path d="M0 0L800 0L800 800L0 800L0 0Z" fill-opacity="0" />
  </g>
  <path d="M439 238.725L175.35 238.725C154.725 238.725 137.988 255.463 137.988 276.088L137.988 600.638C137.988 621.263 154.725 638 175.35 638L500.65 638C521.275 638 538.012 621.263 538.012 600.638L538.012 338.725L588 338.725L588 613.075C588 654.425 554.425 688 513.063 688.013L162.938 688.013C121.575 688.013 88 654.425 88 613.075L88 263.65C88 222.288 121.575 188.713 162.938 188.713L439 188.713L439 238.725L439 238.725ZM687.737 304.5L637.675 304.5L637.675 173.488L289 522.15L253.6 486.75L602.287 138.063L471.237 138.063L471.237 88L687.712 88L687.737 88.0125L687.737 304.5L687.737 304.5Z" id="Icons#1" fill="#9CA2AE" fill-rule="evenodd" stroke="none" />
</svg>