<?xml version="1.0" encoding="utf-8"?>
<svg width="800px" height="800px" viewBox="0 0 800 800" version="1.1" xmlns:xlink="http://www.w3.org/1999/xlink" xmlns="http://www.w3.org/2000/svg">
  <defs>
    <path d="M0 0L800 0L800 800L0 800L0 0Z" id="path_1" />
    <clipPath id="mask_1">
      <use xlink:href="#path_1" />
    </clipPath>
  </defs>
  <g id="linkedin">
    <path d="M0 0L800 0L800 800L0 800L0 0Z" id="Background" fill="#FFFFFF" fill-opacity="0" fill-rule="evenodd" stroke="none" />
    <path d="M624 133.332L179 133.332C173.264 133.064 167.532 133.929 162.131 135.878C156.73 137.828 151.766 140.824 147.524 144.694C143.283 148.564 139.846 153.233 137.411 158.433C134.976 163.633 133.59 169.263 133.333 174.999L133.333 621C133.669 633.003 138.589 644.427 147.081 652.917C155.573 661.41 166.995 666.33 179 666.667L624 666.667C635.67 666.147 646.673 661.073 654.65 652.537C662.627 644 666.94 632.68 666.667 621L666.667 174.999C666.763 169.416 665.717 163.872 663.593 158.707C661.47 153.543 658.313 148.867 654.317 144.965C650.323 141.064 645.573 138.02 640.36 136.019C635.147 134.019 629.58 133.105 624 133.332L624 133.332ZM300 578L222.333 578L222.333 340.333L300 340.333L300 578L300 578ZM263 304.332C257.58 304.521 252.18 303.587 247.139 301.589C242.097 299.591 237.523 296.572 233.704 292.722C229.885 288.872 226.904 284.273 224.947 279.216C222.99 274.158 222.1 268.75 222.333 263.332C222.094 257.856 223.001 252.39 224.998 247.285C226.995 242.179 230.037 237.548 233.929 233.688C237.821 229.827 242.477 226.823 247.598 224.867C252.719 222.912 258.192 222.048 263.667 222.332C269.086 222.144 274.487 223.077 279.528 225.075C284.57 227.073 289.144 230.092 292.962 233.943C296.781 237.793 299.763 242.391 301.72 247.449C303.677 252.507 304.566 257.914 304.333 263.332C304.573 268.809 303.665 274.275 301.668 279.38C299.671 284.485 296.629 289.117 292.738 292.977C288.846 296.838 284.19 299.842 279.069 301.797C273.948 303.753 268.474 304.616 263 304.332L263 304.332ZM578 578L500 578L500 448C500 417 489 395.667 461.333 395.667C452.74 395.74 444.377 398.47 437.397 403.483C430.413 408.497 425.153 415.547 422.333 423.667C420.167 429.753 419.26 436.217 419.667 442.667L419.667 578L343 578L343 340.333L419.667 340.333L419.667 373.667C426.483 361.143 436.627 350.75 448.98 343.63C461.333 336.513 475.413 332.949 489.667 333.332C540 333.332 578 366.667 578 437.667L578 578L578 578Z" id="Shape" fill="#9CA2AE" fill-rule="evenodd" stroke="none" />
  </g>
</svg>