<?xml version="1.0" encoding="utf-8"?>
<svg width="610px" height="572px" viewBox="0 0 610 572" version="1.1" xmlns:xlink="http://www.w3.org/1999/xlink" xmlns="http://www.w3.org/2000/svg">
  <defs>
    <rect width="610" height="572" id="artboard_1" />
    <clipPath id="clip_1">
      <use xlink:href="#artboard_1" clip-rule="evenodd" />
    </clipPath>
  </defs>
  <g id="Artboard" clip-path="url(#clip_1)">
    <use xlink:href="#artboard_1" stroke="none" fill="#141517" />
    <g id="Group" transform="translate(98 175)" artboard="415705f8-5aba-4465-b88d-48ed8fdf6450">
      <g id="RE-" fill="#FF5050" transform="translate(7.262329 0)">
        <path d="M221.76 146.14L221.76 154.39L218.79 154.39L218.79 191.68L221.1 191.68L252.78 160L253.11 154.39L256.41 154.39L256.41 146.14L253.11 146.14L253.11 126.67L335.61 126.67L335.61 92.35L254.1 92.35L253.44 92.02L253.11 92.02L253.11 43.84L258.39 43.84L258.39 54.4L292.71 54.4L292.71 43.51L369.6 43.51L371.58 41.86L360.36 41.86L392.04 9.84999L242.22 9.84999L242.22 15.13L218.79 15.13L218.79 146.14L221.76 146.14ZM195.69 54.73L190.41 54.73L190.41 39.22L184.8 39.22L184.8 11.17L15.51 11.17L15.51 39.22L21.12 39.22L21.12 54.73L25.74 54.73L25.74 68.26L15.51 68.26L15.51 97.96L96.69 178.81L104.61 178.81L119.13 192.67L112.86 192.67L118.14 198.28L118.47 201.91L128.37 211.48L178.53 211.48L160.05 192.67L162.69 192.67L148.83 178.81L145.2 178.81L49.5 83.44L49.83 68.26L58.74 68.26L58.74 54.73L53.46 54.73L53.46 39.22L156.42 39.22L156.42 54.73L161.37 54.73L161.37 68.26L150.48 68.26L150.48 94L77.88 94L77.22 94.66L76.89 95.32L109.89 128.32L185.13 128.32L185.13 68.26L195.69 68.26L195.69 54.73ZM48.84 178.81L48.84 150.1L15.51 116.44L15.51 178.81L24.09 178.81L24.09 192.67L15.51 192.67L15.51 211.15L48.84 211.15L48.84 192.67L58.41 192.67L58.41 178.81L48.84 178.81ZM392.7 202.57L393.69 201.58L382.14 189.7L367.29 189.7L355.08 177.49L252.78 177.49L230.01 200.59L218.79 211.81L387.42 211.81L388.08 211.15L388.08 210.49L381.48 202.57L392.7 202.57Z" />
      </g>
      <g id="RE-" fill="#4CC3FF" transform="translate(0 1.15625)">
        <path d="M221.76 146.14L221.76 154.39L218.79 154.39L218.79 191.68L221.1 191.68L252.78 160L253.11 154.39L256.41 154.39L256.41 146.14L253.11 146.14L253.11 126.67L335.61 126.67L335.61 92.35L254.1 92.35L253.44 92.02L253.11 92.02L253.11 43.84L258.39 43.84L258.39 54.4L292.71 54.4L292.71 43.51L369.6 43.51L371.58 41.86L360.36 41.86L392.04 9.84999L242.22 9.84999L242.22 15.13L218.79 15.13L218.79 146.14L221.76 146.14ZM195.69 54.73L190.41 54.73L190.41 39.22L184.8 39.22L184.8 11.17L15.51 11.17L15.51 39.22L21.12 39.22L21.12 54.73L25.74 54.73L25.74 68.26L15.51 68.26L15.51 97.96L96.69 178.81L104.61 178.81L119.13 192.67L112.86 192.67L118.14 198.28L118.47 201.91L128.37 211.48L178.53 211.48L160.05 192.67L162.69 192.67L148.83 178.81L145.2 178.81L49.5 83.44L49.83 68.26L58.74 68.26L58.74 54.73L53.46 54.73L53.46 39.22L156.42 39.22L156.42 54.73L161.37 54.73L161.37 68.26L150.48 68.26L150.48 94L77.88 94L77.22 94.66L76.89 95.32L109.89 128.32L185.13 128.32L185.13 68.26L195.69 68.26L195.69 54.73ZM48.84 178.81L48.84 150.1L15.51 116.44L15.51 178.81L24.09 178.81L24.09 192.67L15.51 192.67L15.51 211.15L48.84 211.15L48.84 192.67L58.41 192.67L58.41 178.81L48.84 178.81ZM392.7 202.57L393.69 201.58L382.14 189.7L367.29 189.7L355.08 177.49L252.78 177.49L230.01 200.59L218.79 211.81L387.42 211.81L388.08 211.15L388.08 210.49L381.48 202.57L392.7 202.57Z" />
      </g>
      <g id="RE-" fill="#FFFFFF" transform="translate(2.7233887 0)">
        <path d="M221.76 146.14L221.76 154.39L218.79 154.39L218.79 191.68L221.1 191.68L252.78 160L253.11 154.39L256.41 154.39L256.41 146.14L253.11 146.14L253.11 126.67L335.61 126.67L335.61 92.35L254.1 92.35L253.44 92.02L253.11 92.02L253.11 43.84L258.39 43.84L258.39 54.4L292.71 54.4L292.71 43.51L369.6 43.51L371.58 41.86L360.36 41.86L392.04 9.84999L242.22 9.84999L242.22 15.13L218.79 15.13L218.79 146.14L221.76 146.14ZM195.69 54.73L190.41 54.73L190.41 39.22L184.8 39.22L184.8 11.17L15.51 11.17L15.51 39.22L21.12 39.22L21.12 54.73L25.74 54.73L25.74 68.26L15.51 68.26L15.51 97.96L96.69 178.81L104.61 178.81L119.13 192.67L112.86 192.67L118.14 198.28L118.47 201.91L128.37 211.48L178.53 211.48L160.05 192.67L162.69 192.67L148.83 178.81L145.2 178.81L49.5 83.44L49.83 68.26L58.74 68.26L58.74 54.73L53.46 54.73L53.46 39.22L156.42 39.22L156.42 54.73L161.37 54.73L161.37 68.26L150.48 68.26L150.48 94L77.88 94L77.22 94.66L76.89 95.32L109.89 128.32L185.13 128.32L185.13 68.26L195.69 68.26L195.69 54.73ZM48.84 178.81L48.84 150.1L15.51 116.44L15.51 178.81L24.09 178.81L24.09 192.67L15.51 192.67L15.51 211.15L48.84 211.15L48.84 192.67L58.41 192.67L58.41 178.81L48.84 178.81ZM392.7 202.57L393.69 201.58L382.14 189.7L367.29 189.7L355.08 177.49L252.78 177.49L230.01 200.59L218.79 211.81L387.42 211.81L388.08 211.15L388.08 210.49L381.48 202.57L392.7 202.57Z" />
      </g>
    </g>
  </g>
</svg>