<?xml version="1.0" encoding="utf-8"?>
<svg width="800px" height="800px" viewBox="0 0 800 800" version="1.1" xmlns:xlink="http://www.w3.org/1999/xlink" xmlns="http://www.w3.org/2000/svg">
  <defs>
    <path d="M0 0L800 0L800 800L0 800L0 0Z" id="path_1" />
    <clipPath id="mask_1">
      <use xlink:href="#path_1" />
    </clipPath>
  </defs>
  <g id="whatsApp">
    <path d="M0 0L800 0L800 800L0 800L0 0Z" id="Background" fill="#FFFFFF" fill-opacity="0" fill-rule="evenodd" stroke="none" />
    <path d="M400 66.6667C215.904 66.6667 66.6667 215.904 66.6667 400C66.6667 454.667 79.8458 506.321 103.212 551.896L67.3458 702.542C65.339 710.987 67.8551 719.869 73.9931 726.007C80.1311 732.145 89.013 734.661 97.4583 732.654L248.104 696.787C293.679 720.154 345.333 733.333 400 733.333C584.096 733.333 733.333 584.096 733.333 400C733.333 215.904 584.096 66.6667 400 66.6667L400 66.6667ZM116.667 400C116.667 243.521 243.521 116.667 400 116.667C556.479 116.667 683.333 243.521 683.333 400C683.333 556.479 556.479 683.333 400 683.333C350.483 683.333 304 670.654 263.554 648.379C258.111 645.383 251.748 644.52 245.704 645.958L125.396 674.604L154.042 554.296C155.48 548.252 154.617 541.888 151.621 536.446C129.346 495.996 116.667 449.517 116.667 400L116.667 400ZM308.429 491.571C358.325 541.463 424.854 574.933 499.067 582.9C548.133 588.163 583.333 547.737 583.333 505.746L583.333 476.596C583.333 441.714 560.453 410.963 527.044 400.941L524.725 400.246L522.35 399.779L488.925 393.196C467.186 387.569 444.08 391.46 425.383 403.896C414.503 395.325 404.675 385.497 396.104 374.617C408.544 355.918 412.437 332.808 406.808 311.067L400.217 277.646L399.75 275.271L399.054 272.95C389.032 239.544 358.285 216.668 323.408 216.667L294.25 216.667C252.262 216.667 211.833 251.858 217.096 300.929C225.063 375.137 258.529 441.675 308.429 491.571L308.429 491.571ZM448.646 449.158C456.185 441.622 467.252 438.832 477.462 441.896L512.683 448.833C524.941 452.514 533.333 463.798 533.333 476.596L533.333 505.746C533.333 521.75 520.317 534.892 504.404 533.183C464.647 528.935 426.356 515.788 392.375 494.717C374.75 483.796 358.446 470.876 343.788 456.212C329.124 441.554 316.204 425.25 305.283 407.625C284.213 373.642 271.066 335.35 266.817 295.592C265.108 279.679 278.25 266.667 294.25 266.667L323.404 266.667C336.2 266.67 347.478 275.065 351.154 287.321L358.1 322.533C361.164 332.745 358.375 343.814 350.837 351.354L346.171 356.021C343.083 359.096 340.862 362.932 339.733 367.142C338.183 372.988 338.883 379.313 342.246 384.738C351.397 399.515 362.226 413.185 374.517 425.475C386.807 437.768 400.479 448.598 415.258 457.75C420.683 461.108 427.004 461.813 432.854 460.263C437.063 459.133 440.899 456.913 443.975 453.825L448.642 449.158L448.646 449.158Z" id="Shape" fill="#9CA2AE" fill-rule="evenodd" stroke="none" />
  </g>
</svg>